<svg xmlns="http://www.w3.org/2000/svg" xmlns:xlink="http://www.w3.org/1999/xlink" width="1440" zoomAndPan="magnify" viewBox="0 0 1080 404.99999" height="540" preserveAspectRatio="xMidYMid meet" version="1.0"><defs><clipPath id="a82df7d993"><path d="M 261 0 L 423 0 L 423 81 L 261 81 Z M 261 0 " clip-rule="nonzero"/></clipPath><clipPath id="1f0612d495"><path d="M 261.738281 80.027344 L 222.617188 -81.039062 L 383.683594 -120.160156 L 422.804688 40.90625 Z M 261.738281 80.027344 " clip-rule="nonzero"/></clipPath><clipPath id="cfb38d58e2"><path d="M 261.800781 80.285156 L 222.5 -81.511719 L 383.570312 -120.632812 L 422.867188 41.164062 Z M 261.800781 80.285156 " clip-rule="nonzero"/></clipPath><clipPath id="fec8a19dd3"><path d="M 702.480469 80.039062 L 973.972656 80.039062 L 973.972656 351.535156 L 702.480469 351.535156 Z M 702.480469 80.039062 " clip-rule="nonzero"/></clipPath><clipPath id="abed678e7d"><path d="M 838.226562 80.039062 C 833.78125 80.039062 829.34375 80.257812 824.921875 80.691406 C 820.496094 81.128906 816.105469 81.78125 811.742188 82.648438 C 807.382812 83.515625 803.074219 84.59375 798.820312 85.882812 C 794.566406 87.175781 790.386719 88.671875 786.277344 90.371094 C 782.171875 92.074219 778.15625 93.972656 774.234375 96.066406 C 770.3125 98.164062 766.503906 100.445312 762.808594 102.917969 C 759.113281 105.386719 755.546875 108.03125 752.109375 110.851562 C 748.671875 113.671875 745.382812 116.65625 742.238281 119.796875 C 739.09375 122.941406 736.113281 126.230469 733.292969 129.667969 C 730.472656 133.105469 727.828125 136.671875 725.355469 140.367188 C 722.886719 144.066406 720.605469 147.875 718.507812 151.796875 C 716.410156 155.714844 714.511719 159.730469 712.8125 163.835938 C 711.109375 167.945312 709.613281 172.125 708.324219 176.378906 C 707.035156 180.636719 705.953125 184.941406 705.085938 189.304688 C 704.21875 193.664062 703.570312 198.054688 703.132812 202.480469 C 702.695312 206.90625 702.480469 211.339844 702.480469 215.785156 C 702.480469 220.230469 702.695312 224.667969 703.132812 229.089844 C 703.570312 233.515625 704.21875 237.910156 705.085938 242.269531 C 705.953125 246.628906 707.035156 250.9375 708.324219 255.191406 C 709.613281 259.445312 711.109375 263.625 712.8125 267.734375 C 714.511719 271.839844 716.410156 275.855469 718.507812 279.777344 C 720.605469 283.699219 722.886719 287.507812 725.355469 291.203125 C 727.828125 294.898438 730.472656 298.464844 733.292969 301.902344 C 736.113281 305.339844 739.09375 308.628906 742.238281 311.773438 C 745.382812 314.917969 748.671875 317.898438 752.109375 320.71875 C 755.546875 323.539062 759.113281 326.1875 762.808594 328.65625 C 766.503906 331.125 770.3125 333.410156 774.234375 335.503906 C 778.15625 337.601562 782.171875 339.5 786.277344 341.199219 C 790.386719 342.902344 794.566406 344.398438 798.820312 345.6875 C 803.074219 346.980469 807.382812 348.058594 811.742188 348.925781 C 816.105469 349.792969 820.496094 350.445312 824.921875 350.878906 C 829.34375 351.316406 833.78125 351.535156 838.226562 351.535156 C 842.671875 351.535156 847.105469 351.316406 851.53125 350.878906 C 855.957031 350.445312 860.347656 349.792969 864.710938 348.925781 C 869.070312 348.058594 873.378906 346.980469 877.632812 345.6875 C 881.886719 344.398438 886.066406 342.902344 890.175781 341.199219 C 894.28125 339.5 898.296875 337.601562 902.21875 335.503906 C 906.136719 333.410156 909.945312 331.125 913.644531 328.65625 C 917.339844 326.1875 920.90625 323.539062 924.34375 320.71875 C 927.78125 317.898438 931.070312 314.917969 934.214844 311.773438 C 937.359375 308.628906 940.339844 305.339844 943.160156 301.902344 C 945.980469 298.464844 948.625 294.898438 951.097656 291.203125 C 953.566406 287.507812 955.847656 283.699219 957.945312 279.777344 C 960.039062 275.855469 961.9375 271.839844 963.640625 267.734375 C 965.339844 263.625 966.835938 259.445312 968.128906 255.191406 C 969.417969 250.9375 970.496094 246.628906 971.363281 242.269531 C 972.230469 237.910156 972.882812 233.515625 973.320312 229.089844 C 973.753906 224.667969 973.972656 220.230469 973.972656 215.785156 C 973.972656 211.339844 973.753906 206.90625 973.320312 202.480469 C 972.882812 198.054688 972.230469 193.664062 971.363281 189.304688 C 970.496094 184.941406 969.417969 180.636719 968.128906 176.378906 C 966.835938 172.125 965.339844 167.945312 963.640625 163.835938 C 961.9375 159.730469 960.039062 155.714844 957.945312 151.796875 C 955.847656 147.875 953.566406 144.066406 951.097656 140.367188 C 948.625 136.671875 945.980469 133.105469 943.160156 129.667969 C 940.339844 126.230469 937.359375 122.941406 934.214844 119.796875 C 931.070312 116.65625 927.78125 113.671875 924.34375 110.851562 C 920.90625 108.03125 917.339844 105.386719 913.644531 102.917969 C 909.945312 100.445312 906.136719 98.164062 902.21875 96.066406 C 898.296875 93.972656 894.28125 92.074219 890.175781 90.371094 C 886.066406 88.671875 881.886719 87.175781 877.632812 85.882812 C 873.378906 84.59375 869.070312 83.515625 864.710938 82.648438 C 860.347656 81.78125 855.957031 81.128906 851.53125 80.691406 C 847.105469 80.257812 842.671875 80.039062 838.226562 80.039062 Z M 838.226562 80.039062 " clip-rule="nonzero"/></clipPath><clipPath id="96d02ae30a"><path d="M 445 237 L 651 237 L 651 383 L 445 383 Z M 445 237 " clip-rule="nonzero"/></clipPath><clipPath id="d3544b389f"><path d="M 650.070312 298.054688 L 589.554688 442.652344 L 444.957031 382.140625 L 505.46875 237.542969 Z M 650.070312 298.054688 " clip-rule="nonzero"/></clipPath><clipPath id="516aaf7fe7"><path d="M 650.167969 297.824219 L 589.652344 442.421875 L 445.054688 381.910156 L 505.566406 237.308594 Z M 650.167969 297.824219 " clip-rule="nonzero"/></clipPath><clipPath id="4fd7bb4477"><path d="M 99 275 L 178 275 L 178 405 L 99 405 Z M 99 275 " clip-rule="nonzero"/></clipPath><clipPath id="3b4f745531"><path d="M 98.988281 405.640625 L 46.847656 326.828125 L 125.664062 274.6875 L 177.804688 353.5 Z M 98.988281 405.640625 " clip-rule="nonzero"/></clipPath><clipPath id="d229757123"><path d="M 99.074219 405.765625 L 46.933594 326.953125 L 125.746094 274.8125 L 177.886719 353.625 Z M 99.074219 405.765625 " clip-rule="nonzero"/></clipPath><clipPath id="7dfd2e22df"><path d="M 793 261 L 971 261 L 971 405 L 793 405 Z M 793 261 " clip-rule="nonzero"/></clipPath><clipPath id="5bb3da35e0"><path d="M 970.566406 253.554688 L 997.921875 439.046875 L 812.425781 466.402344 L 785.074219 280.910156 Z M 970.566406 253.554688 " clip-rule="nonzero"/></clipPath><clipPath id="785ea2d03b"><path d="M 911.949219 262.199219 L 844.328125 272.171875 C 811.953125 276.945312 789.582031 307.058594 794.355469 339.429688 L 804.328125 407.054688 C 809.101562 439.425781 839.214844 461.800781 871.585938 457.027344 L 939.210938 447.054688 C 971.585938 442.28125 993.957031 412.167969 989.183594 379.792969 L 979.210938 312.171875 C 974.4375 279.796875 944.324219 257.425781 911.949219 262.199219 Z M 911.949219 262.199219 " clip-rule="nonzero"/></clipPath><clipPath id="50f1de7ca6"><path d="M 970.566406 253.554688 L 997.8125 438.304688 L 813.058594 465.550781 L 785.816406 280.800781 Z M 970.566406 253.554688 " clip-rule="nonzero"/></clipPath><clipPath id="cce2630d62"><path d="M 970.523438 253.257812 L 997.878906 438.75 L 813.125 465.996094 L 785.773438 280.503906 Z M 970.523438 253.257812 " clip-rule="nonzero"/></clipPath><clipPath id="1f4260193b"><path d="M 992 0 L 1080 0 L 1080 170 L 992 170 Z M 992 0 " clip-rule="nonzero"/></clipPath><clipPath id="b75092ee11"><path d="M 992.113281 169.953125 L 952.992188 8.886719 L 1114.058594 -30.234375 L 1153.179688 130.832031 Z M 992.113281 169.953125 " clip-rule="nonzero"/></clipPath><clipPath id="bb8392d06f"><path d="M 992.175781 170.210938 L 952.878906 8.414062 L 1113.945312 -30.707031 L 1153.242188 131.089844 Z M 992.175781 170.210938 " clip-rule="nonzero"/></clipPath></defs><rect x="-108" width="1296" fill="#ffffff" y="-40.499999" height="485.999988" fill-opacity="1"/><rect x="-108" width="1296" fill="#5bc0eb" y="-40.499999" height="485.999988" fill-opacity="1"/><g clip-path="url(#a82df7d993)"><g clip-path="url(#1f0612d495)"><g clip-path="url(#cfb38d58e2)"><path fill="#e55934" d="M 383.71875 -120.40625 L 422.925781 41.007812 L 261.765625 80.152344 Z M 416.144531 36.878906 L 381.453125 -105.941406 L 273.582031 71.503906 Z M 416.144531 36.878906 " fill-opacity="1" fill-rule="nonzero"/></g></g></g><g clip-path="url(#fec8a19dd3)"><g clip-path="url(#abed678e7d)"><path fill="#ffce2b" d="M 702.480469 80.039062 L 973.972656 80.039062 L 973.972656 351.535156 L 702.480469 351.535156 Z M 702.480469 80.039062 " fill-opacity="1" fill-rule="nonzero"/></g></g><g clip-path="url(#96d02ae30a)"><g clip-path="url(#d3544b389f)"><g clip-path="url(#516aaf7fe7)"><path fill="#fde74c" d="M 445.183594 382.144531 L 505.714844 237.507812 L 650.117188 297.941406 Z M 508.554688 244.441406 L 455 372.417969 L 636.296875 297.902344 Z M 508.554688 244.441406 " fill-opacity="1" fill-rule="nonzero"/></g></g></g><g clip-path="url(#4fd7bb4477)"><g clip-path="url(#3b4f745531)"><g clip-path="url(#d229757123)"><path fill="#ffce2b" d="M 125.519531 275.109375 L 177.550781 353.753906 L 99.03125 405.703125 Z M 173.132812 352.855469 L 127.097656 283.269531 L 103.675781 398.808594 Z M 173.132812 352.855469 " fill-opacity="1" fill-rule="nonzero"/></g></g></g><g clip-path="url(#7dfd2e22df)"><g clip-path="url(#5bb3da35e0)"><g clip-path="url(#785ea2d03b)"><g clip-path="url(#50f1de7ca6)"><g clip-path="url(#cce2630d62)"><path fill="#e55934" d="M 813.003906 465.8125 L 785.703125 280.667969 L 970.546875 253.410156 Z M 792.882812 286.003906 L 817.039062 449.816406 L 956.398438 261.890625 Z M 792.882812 286.003906 " fill-opacity="1" fill-rule="nonzero"/></g></g></g></g></g><g clip-path="url(#1f4260193b)"><g clip-path="url(#b75092ee11)"><g clip-path="url(#bb8392d06f)"><path fill="#e55934" d="M 1114.097656 -30.480469 L 1153.300781 130.933594 L 992.144531 170.078125 Z M 1146.519531 126.804688 L 1111.832031 -16.015625 L 1003.957031 161.429688 Z M 1146.519531 126.804688 " fill-opacity="1" fill-rule="nonzero"/></g></g></g></svg>